<svg width="79" height="72" viewBox="0 0 79 72" fill="none" xmlns="http://www.w3.org/2000/svg">
<path d="M31.318 14.1479C31.7771 13.9374 32.1908 13.6344 32.5349 13.2568C32.879 12.8792 33.1465 12.4345 33.3218 11.9488C33.4971 11.4631 33.5766 10.9462 33.5557 10.4284C33.5348 9.91064 33.4138 9.40236 33.2 8.93341L30.123 2.21803C29.7055 1.30571 28.9591 0.597635 28.0429 0.244641C27.1267 -0.108353 26.1131 -0.0783596 25.218 0.328231C20.1733 2.4613 15.5646 5.55794 11.634 9.45537C7.37672 13.5196 4.23166 18.6683 2.515 24.3839C0.88 29.9883 0 37.6218 0 47.3307V67.3428C0.000512986 68.3766 0.397586 69.3683 1.10451 70.1012C1.81143 70.8341 2.77076 71.2487 3.773 71.2544H28.488C29.4902 71.2487 30.4496 70.8341 31.1565 70.1012C31.8634 69.3683 32.2605 68.3766 32.261 67.3428V41.7243C32.2607 40.6903 31.8638 39.6985 31.1568 38.9655C30.4498 38.2326 29.4903 37.8181 28.488 37.8126H16.665C16.791 31.2272 18.3 25.9498 21.065 21.9701C23.7332 18.4534 27.2769 15.7498 31.318 14.1479Z" fill="#EDEDED"/>
<path d="M76.1007 14.1492C76.5603 13.939 76.9745 13.6363 77.3191 13.2588C77.6637 12.8813 77.9318 12.4366 78.1076 11.9508C78.2833 11.465 78.3633 10.9478 78.3427 10.4297C78.3221 9.91164 78.2014 9.40299 77.9877 8.93364L74.9057 2.28428C74.4884 1.37178 73.7421 0.663476 72.8258 0.310282C71.9096 -0.0429111 70.8959 -0.0130676 70.0007 0.393453C65.007 2.56033 60.4282 5.62916 56.4797 9.45561C52.2155 13.5524 49.0522 18.7182 47.2977 24.4502C45.663 29.925 44.8457 37.5522 44.8457 47.332V67.344C44.8462 68.3779 45.2433 69.3696 45.9502 70.1025C46.6571 70.8354 47.6165 71.25 48.6187 71.2557H73.3337C74.336 71.25 75.2953 70.8354 76.0022 70.1025C76.7091 69.3696 77.1062 68.3779 77.1067 67.344V41.7255C77.1065 40.6916 76.7095 39.6998 76.0025 38.9668C75.2955 38.2338 74.336 37.8194 73.3337 37.8139H61.4457C61.5717 31.2285 63.0817 25.9511 65.8457 21.9714C68.5144 18.4542 72.0588 15.7506 76.1007 14.1492Z" fill="#EDEDED"/>
</svg>
